<svg width="173" height="188" viewBox="0 0 173 188" fill="none" xmlns="http://www.w3.org/2000/svg">
<rect width="172.5" height="188" fill="white"/>
<path d="M48.9432 91.1477H47.1705C47.1023 90.7689 46.9754 90.4356 46.7898 90.1477C46.6042 89.8598 46.3769 89.6155 46.108 89.4148C45.839 89.214 45.5379 89.0625 45.2045 88.9602C44.875 88.858 44.5246 88.8068 44.1534 88.8068C43.483 88.8068 42.8826 88.9754 42.3523 89.3125C41.8258 89.6496 41.4091 90.1439 41.1023 90.7955C40.7992 91.447 40.6477 92.2424 40.6477 93.1818C40.6477 94.1288 40.7992 94.928 41.1023 95.5795C41.4091 96.2311 41.8277 96.7235 42.358 97.0568C42.8883 97.3902 43.4848 97.5568 44.1477 97.5568C44.5152 97.5568 44.8636 97.5076 45.1932 97.4091C45.5265 97.3068 45.8277 97.1572 46.0966 96.9602C46.3655 96.7633 46.5928 96.5227 46.7784 96.2386C46.9678 95.9508 47.0985 95.6212 47.1705 95.25L48.9432 95.2557C48.8485 95.8277 48.6648 96.3542 48.392 96.8352C48.1231 97.3125 47.7765 97.7254 47.3523 98.0739C46.9318 98.4186 46.4508 98.6856 45.9091 98.875C45.3674 99.0644 44.7765 99.1591 44.1364 99.1591C43.1288 99.1591 42.2311 98.9205 41.4432 98.4432C40.6553 97.9621 40.0341 97.2746 39.5795 96.3807C39.1288 95.4867 38.9034 94.4205 38.9034 93.1818C38.9034 91.9394 39.1307 90.8731 39.5852 89.983C40.0398 89.089 40.661 88.4034 41.4489 87.9261C42.2367 87.4451 43.1326 87.2045 44.1364 87.2045C44.7538 87.2045 45.3295 87.2936 45.8636 87.4716C46.4015 87.6458 46.8845 87.9034 47.3125 88.2443C47.7405 88.5814 48.0947 88.9943 48.375 89.483C48.6553 89.9678 48.8447 90.5227 48.9432 91.1477ZM53.9438 99.1761C53.1256 99.1761 52.4116 98.9886 51.8018 98.6136C51.1919 98.2386 50.7184 97.714 50.3813 97.0398C50.0442 96.3655 49.8756 95.5777 49.8756 94.6761C49.8756 93.7708 50.0442 92.9792 50.3813 92.3011C50.7184 91.6231 51.1919 91.0966 51.8018 90.7216C52.4116 90.3466 53.1256 90.1591 53.9438 90.1591C54.762 90.1591 55.476 90.3466 56.0859 90.7216C56.6957 91.0966 57.1692 91.6231 57.5063 92.3011C57.8434 92.9792 58.012 93.7708 58.012 94.6761C58.012 95.5777 57.8434 96.3655 57.5063 97.0398C57.1692 97.714 56.6957 98.2386 56.0859 98.6136C55.476 98.9886 54.762 99.1761 53.9438 99.1761ZM53.9495 97.75C54.4798 97.75 54.9192 97.6098 55.2677 97.3295C55.6162 97.0492 55.8737 96.6761 56.0404 96.2102C56.2109 95.7443 56.2961 95.2311 56.2961 94.6705C56.2961 94.1136 56.2109 93.6023 56.0404 93.1364C55.8737 92.6667 55.6162 92.2898 55.2677 92.0057C54.9192 91.7216 54.4798 91.5795 53.9495 91.5795C53.4154 91.5795 52.9722 91.7216 52.6199 92.0057C52.2715 92.2898 52.012 92.6667 51.8415 93.1364C51.6749 93.6023 51.5915 94.1136 51.5915 94.6705C51.5915 95.2311 51.6749 95.7443 51.8415 96.2102C52.012 96.6761 52.2715 97.0492 52.6199 97.3295C52.9722 97.6098 53.4154 97.75 53.9495 97.75ZM59.2683 99V90.2727H60.899V91.6932H61.0069C61.1887 91.2121 61.4861 90.8371 61.899 90.5682C62.3119 90.2955 62.8062 90.1591 63.3819 90.1591C63.9653 90.1591 64.4539 90.2955 64.8478 90.5682C65.2456 90.8409 65.5391 91.2159 65.7285 91.6932H65.8194C66.0278 91.2273 66.3592 90.8561 66.8137 90.5795C67.2683 90.2992 67.81 90.1591 68.4387 90.1591C69.2304 90.1591 69.8762 90.4072 70.3762 90.9034C70.88 91.3996 71.1319 92.1477 71.1319 93.1477V99H69.4331V93.3068C69.4331 92.7159 69.2721 92.2879 68.9501 92.0227C68.6281 91.7576 68.2437 91.625 67.7967 91.625C67.2437 91.625 66.8137 91.7955 66.5069 92.1364C66.2001 92.4735 66.0467 92.9072 66.0467 93.4375V99H64.3535V93.1989C64.3535 92.7254 64.2058 92.3447 63.9103 92.0568C63.6149 91.7689 63.2304 91.625 62.7569 91.625C62.435 91.625 62.1376 91.7102 61.8649 91.8807C61.5959 92.0473 61.3781 92.2803 61.2115 92.5795C61.0486 92.8788 60.9672 93.2254 60.9672 93.6193V99H59.2683ZM72.7689 99V90.2727H74.4678V99H72.7689ZM73.6269 88.9261C73.3314 88.9261 73.0776 88.8277 72.8655 88.6307C72.6572 88.4299 72.553 88.1913 72.553 87.9148C72.553 87.6345 72.6572 87.3958 72.8655 87.1989C73.0776 86.9981 73.3314 86.8977 73.6269 86.8977C73.9223 86.8977 74.1742 86.9981 74.3826 87.1989C74.5947 87.3958 74.7007 87.6345 74.7007 87.9148C74.7007 88.1913 74.5947 88.4299 74.3826 88.6307C74.1742 88.8277 73.9223 88.9261 73.6269 88.9261ZM77.8122 93.8182V99H76.1133V90.2727H77.744V91.6932H77.8519C78.0527 91.2311 78.3671 90.8598 78.7951 90.5795C79.2269 90.2992 79.7705 90.1591 80.4258 90.1591C81.0205 90.1591 81.5413 90.2841 81.9883 90.5341C82.4353 90.7803 82.7819 91.1477 83.0281 91.6364C83.2743 92.125 83.3974 92.7292 83.3974 93.4489V99H81.6985V93.6534C81.6985 93.0208 81.5337 92.5265 81.2042 92.1705C80.8747 91.8106 80.422 91.6307 79.8462 91.6307C79.4523 91.6307 79.1019 91.7159 78.7951 91.8864C78.4921 92.0568 78.2516 92.3068 78.0735 92.6364C77.8993 92.9621 77.8122 93.3561 77.8122 93.8182ZM88.6949 102.455C88.0017 102.455 87.4051 102.364 86.9051 102.182C86.4089 102 86.0036 101.759 85.6892 101.46C85.3748 101.161 85.14 100.833 84.9847 100.477L86.4449 99.875C86.5472 100.042 86.6835 100.218 86.854 100.403C87.0282 100.593 87.2631 100.754 87.5585 100.886C87.8578 101.019 88.2422 101.085 88.7119 101.085C89.3559 101.085 89.8881 100.928 90.3085 100.614C90.729 100.303 90.9392 99.8068 90.9392 99.125V97.4091H90.8312C90.729 97.5947 90.5812 97.8011 90.3881 98.0284C90.1987 98.2557 89.9373 98.4527 89.604 98.6193C89.2706 98.786 88.8369 98.8693 88.3028 98.8693C87.6134 98.8693 86.9922 98.7083 86.4392 98.3864C85.89 98.0606 85.4544 97.5814 85.1324 96.9489C84.8142 96.3125 84.6551 95.5303 84.6551 94.6023C84.6551 93.6742 84.8123 92.8788 85.1267 92.2159C85.4449 91.553 85.8805 91.0455 86.4335 90.6932C86.9866 90.3371 87.6134 90.1591 88.3142 90.1591C88.8559 90.1591 89.2934 90.25 89.6267 90.4318C89.96 90.6098 90.2195 90.8182 90.4051 91.0568C90.5945 91.2955 90.7403 91.5057 90.8426 91.6875H90.9676V90.2727H92.6324V99.1932C92.6324 99.9432 92.4581 100.559 92.1097 101.04C91.7612 101.521 91.2896 101.877 90.6949 102.108C90.104 102.339 89.4373 102.455 88.6949 102.455ZM88.6778 97.4602C89.1665 97.4602 89.5794 97.3466 89.9165 97.1193C90.2574 96.8883 90.515 96.5587 90.6892 96.1307C90.8672 95.6989 90.9562 95.1818 90.9562 94.5795C90.9562 93.9924 90.8691 93.4754 90.6949 93.0284C90.5206 92.5814 90.265 92.233 89.9278 91.983C89.5907 91.7292 89.1741 91.6023 88.6778 91.6023C88.1665 91.6023 87.7403 91.7348 87.3994 92C87.0585 92.2614 86.8009 92.6174 86.6267 93.0682C86.4562 93.5189 86.371 94.0227 86.371 94.5795C86.371 95.1515 86.4581 95.6534 86.6324 96.0852C86.8066 96.517 87.0642 96.8542 87.4051 97.0966C87.7498 97.339 88.1741 97.4602 88.6778 97.4602ZM104.348 90.4205C104.288 89.8826 104.038 89.4659 103.598 89.1705C103.159 88.8712 102.606 88.7216 101.939 88.7216C101.462 88.7216 101.049 88.7973 100.7 88.9489C100.352 89.0966 100.081 89.3011 99.8879 89.5625C99.6985 89.8201 99.6038 90.1136 99.6038 90.4432C99.6038 90.7197 99.6682 90.9583 99.797 91.1591C99.9296 91.3598 100.102 91.5284 100.314 91.6648C100.53 91.7973 100.761 91.9091 101.007 92C101.253 92.0871 101.49 92.1591 101.717 92.2159L102.854 92.5114C103.225 92.6023 103.606 92.7254 103.996 92.8807C104.386 93.036 104.748 93.2405 105.081 93.4943C105.414 93.7481 105.683 94.0625 105.888 94.4375C106.096 94.8125 106.2 95.2614 106.2 95.7841C106.2 96.4432 106.03 97.0284 105.689 97.5398C105.352 98.0511 104.861 98.4545 104.217 98.75C103.577 99.0455 102.803 99.1932 101.894 99.1932C101.022 99.1932 100.269 99.0549 99.6322 98.7784C98.9959 98.5019 98.4977 98.1098 98.1379 97.6023C97.778 97.0909 97.5792 96.4848 97.5413 95.7841H99.3027C99.3368 96.2045 99.4731 96.5549 99.7118 96.8352C99.9542 97.1117 100.263 97.3182 100.638 97.4545C101.017 97.5871 101.431 97.6534 101.882 97.6534C102.378 97.6534 102.82 97.5758 103.206 97.4205C103.596 97.2614 103.903 97.0417 104.127 96.7614C104.35 96.4773 104.462 96.1458 104.462 95.767C104.462 95.4223 104.363 95.1402 104.166 94.9205C103.973 94.7008 103.71 94.5189 103.377 94.375C103.047 94.2311 102.674 94.1042 102.257 93.9943L100.882 93.6193C99.9504 93.3655 99.2118 92.9924 98.6663 92.5C98.1246 92.0076 97.8538 91.3561 97.8538 90.5455C97.8538 89.875 98.0356 89.2898 98.3993 88.7898C98.7629 88.2898 99.2553 87.9015 99.8765 87.625C100.498 87.3447 101.199 87.2045 101.979 87.2045C102.767 87.2045 103.462 87.3428 104.064 87.6193C104.67 87.8958 105.147 88.2765 105.496 88.7614C105.844 89.2424 106.026 89.7955 106.041 90.4205H104.348ZM111.198 99.1761C110.38 99.1761 109.666 98.9886 109.056 98.6136C108.446 98.2386 107.973 97.714 107.636 97.0398C107.299 96.3655 107.13 95.5777 107.13 94.6761C107.13 93.7708 107.299 92.9792 107.636 92.3011C107.973 91.6231 108.446 91.0966 109.056 90.7216C109.666 90.3466 110.38 90.1591 111.198 90.1591C112.016 90.1591 112.73 90.3466 113.34 90.7216C113.95 91.0966 114.424 91.6231 114.761 92.3011C115.098 92.9792 115.266 93.7708 115.266 94.6761C115.266 95.5777 115.098 96.3655 114.761 97.0398C114.424 97.714 113.95 98.2386 113.34 98.6136C112.73 98.9886 112.016 99.1761 111.198 99.1761ZM111.204 97.75C111.734 97.75 112.174 97.6098 112.522 97.3295C112.871 97.0492 113.128 96.6761 113.295 96.2102C113.465 95.7443 113.55 95.2311 113.55 94.6705C113.55 94.1136 113.465 93.6023 113.295 93.1364C113.128 92.6667 112.871 92.2898 112.522 92.0057C112.174 91.7216 111.734 91.5795 111.204 91.5795C110.67 91.5795 110.227 91.7216 109.874 92.0057C109.526 92.2898 109.266 92.6667 109.096 93.1364C108.929 93.6023 108.846 94.1136 108.846 94.6705C108.846 95.2311 108.929 95.7443 109.096 96.2102C109.266 96.6761 109.526 97.0492 109.874 97.3295C110.227 97.6098 110.67 97.75 111.204 97.75ZM120.199 99.1761C119.381 99.1761 118.667 98.9886 118.057 98.6136C117.447 98.2386 116.973 97.714 116.636 97.0398C116.299 96.3655 116.131 95.5777 116.131 94.6761C116.131 93.7708 116.299 92.9792 116.636 92.3011C116.973 91.6231 117.447 91.0966 118.057 90.7216C118.667 90.3466 119.381 90.1591 120.199 90.1591C121.017 90.1591 121.731 90.3466 122.341 90.7216C122.951 91.0966 123.424 91.6231 123.761 92.3011C124.098 92.9792 124.267 93.7708 124.267 94.6761C124.267 95.5777 124.098 96.3655 123.761 97.0398C123.424 97.714 122.951 98.2386 122.341 98.6136C121.731 98.9886 121.017 99.1761 120.199 99.1761ZM120.204 97.75C120.735 97.75 121.174 97.6098 121.523 97.3295C121.871 97.0492 122.129 96.6761 122.295 96.2102C122.466 95.7443 122.551 95.2311 122.551 94.6705C122.551 94.1136 122.466 93.6023 122.295 93.1364C122.129 92.6667 121.871 92.2898 121.523 92.0057C121.174 91.7216 120.735 91.5795 120.204 91.5795C119.67 91.5795 119.227 91.7216 118.875 92.0057C118.526 92.2898 118.267 92.6667 118.097 93.1364C117.93 93.6023 117.847 94.1136 117.847 94.6705C117.847 95.2311 117.93 95.7443 118.097 96.2102C118.267 96.6761 118.526 97.0492 118.875 97.3295C119.227 97.6098 119.67 97.75 120.204 97.75ZM127.222 93.8182V99H125.523V90.2727H127.154V91.6932H127.262C127.463 91.2311 127.777 90.8598 128.205 90.5795C128.637 90.2992 129.18 90.1591 129.836 90.1591C130.43 90.1591 130.951 90.2841 131.398 90.5341C131.845 90.7803 132.192 91.1477 132.438 91.6364C132.684 92.125 132.807 92.7292 132.807 93.4489V99H131.109V93.6534C131.109 93.0208 130.944 92.5265 130.614 92.1705C130.285 91.8106 129.832 91.6307 129.256 91.6307C128.862 91.6307 128.512 91.7159 128.205 91.8864C127.902 92.0568 127.662 92.3068 127.484 92.6364C127.309 92.9621 127.222 93.3561 127.222 93.8182Z" fill="#003CFF"/>
</svg>
