<svg width="154" height="40" viewBox="0 0 154 40" fill="none" xmlns="http://www.w3.org/2000/svg">
<path d="M11.52 7.296C14.144 7.6 16.008 8.168 17.112 9C18.232 9.816 18.792 11.048 18.792 12.696C18.792 14.344 17.984 15.68 16.368 16.704C14.752 17.728 12.608 18.24 9.936 18.24C7.264 18.24 5.184 17.752 3.696 16.776C2.224 15.784 1.488 14.568 1.488 13.128C1.488 12.776 1.672 12.6 2.04 12.6H6.96C7.296 12.6 7.568 12.704 7.776 12.912C8.224 13.344 9 13.56 10.104 13.56C11.624 13.56 12.384 13.328 12.384 12.864C12.384 12.576 12.144 12.352 11.664 12.192C11.184 12.016 10.232 11.848 8.808 11.688C4.28 11.144 2.016 9.408 2.016 6.48C2.016 4.832 2.744 3.504 4.2 2.496C5.656 1.472 7.6 0.959999 10.032 0.959999C12.48 0.959999 14.456 1.496 15.96 2.568C17.464 3.624 18.216 4.744 18.216 5.928C18.216 6.088 18.16 6.216 18.048 6.312C17.952 6.408 17.816 6.456 17.64 6.456H12.48C12.192 6.456 11.944 6.36 11.736 6.168C11.352 5.816 10.776 5.64 10.008 5.64C8.936 5.64 8.4 5.864 8.4 6.312C8.4 6.552 8.608 6.744 9.024 6.888C9.44 7.016 10.272 7.152 11.52 7.296ZM20.4626 1.2H29.4386C31.7106 1.2 33.5106 1.752 34.8386 2.856C36.1666 3.96 36.8306 5.376 36.8306 7.104C36.8306 8.832 36.2706 10.208 35.1506 11.232C34.0306 12.24 32.1266 12.744 29.4386 12.744H26.2706V17.352C26.2706 17.528 26.2066 17.68 26.0786 17.808C25.9506 17.936 25.7986 18 25.6226 18H20.4626C20.2866 18 20.1346 17.936 20.0066 17.808C19.8786 17.68 19.8146 17.528 19.8146 17.352V1.848C19.8146 1.672 19.8786 1.52 20.0066 1.392C20.1346 1.264 20.2866 1.2 20.4626 1.2ZM26.2946 5.664V8.304H29.3426C29.7106 8.304 30.0066 8.192 30.2306 7.968C30.4706 7.744 30.5906 7.432 30.5906 7.032C30.5906 6.632 30.4786 6.304 30.2546 6.048C30.0306 5.792 29.7266 5.664 29.3426 5.664H26.2946ZM43.9013 13.32H53.4773C53.6533 13.32 53.8053 13.384 53.9333 13.512C54.0613 13.64 54.1253 13.792 54.1253 13.968V17.352C54.1253 17.528 54.0613 17.68 53.9333 17.808C53.8053 17.936 53.6533 18 53.4773 18H38.3093C38.1333 18 37.9813 17.936 37.8533 17.808C37.7253 17.68 37.6613 17.528 37.6613 17.352V1.848C37.6613 1.672 37.7253 1.52 37.8533 1.392C37.9813 1.264 38.1333 1.2 38.3093 1.2H53.2373C53.4133 1.2 53.5653 1.264 53.6933 1.392C53.8213 1.52 53.8853 1.672 53.8853 1.848V5.232C53.8853 5.408 53.8213 5.56 53.6933 5.688C53.5653 5.816 53.4133 5.88 53.2373 5.88H43.9013V7.392H51.9173C52.0933 7.392 52.2453 7.456 52.3733 7.584C52.5013 7.712 52.5653 7.864 52.5653 8.04V11.16C52.5653 11.336 52.5013 11.488 52.3733 11.616C52.2453 11.744 52.0933 11.808 51.9173 11.808H43.9013V13.32ZM61.6519 13.32H71.2279C71.4039 13.32 71.5559 13.384 71.6839 13.512C71.8119 13.64 71.8759 13.792 71.8759 13.968V17.352C71.8759 17.528 71.8119 17.68 71.6839 17.808C71.5559 17.936 71.4039 18 71.2279 18H56.0599C55.8839 18 55.7319 17.936 55.6039 17.808C55.4759 17.68 55.4119 17.528 55.4119 17.352V1.848C55.4119 1.672 55.4759 1.52 55.6039 1.392C55.7319 1.264 55.8839 1.2 56.0599 1.2H70.9879C71.1639 1.2 71.3159 1.264 71.4439 1.392C71.5719 1.52 71.6359 1.672 71.6359 1.848V5.232C71.6359 5.408 71.5719 5.56 71.4439 5.688C71.3159 5.816 71.1639 5.88 70.9879 5.88H61.6519V7.392H69.6679C69.8439 7.392 69.9959 7.456 70.1239 7.584C70.2519 7.712 70.3159 7.864 70.3159 8.04V11.16C70.3159 11.336 70.2519 11.488 70.1239 11.616C69.9959 11.744 69.8439 11.808 69.6679 11.808H61.6519V13.32ZM73.7145 1.2H81.3705C83.1305 1.2 84.6585 1.432 85.9545 1.896C87.2505 2.36 88.2985 3.144 89.0985 4.248C89.8985 5.352 90.2985 6.728 90.2985 8.376V10.824C90.2985 13.384 89.4345 15.248 87.7065 16.416C86.1225 17.472 84.0105 18 81.3705 18H73.7145C73.5385 18 73.3865 17.936 73.2585 17.808C73.1305 17.68 73.0665 17.528 73.0665 17.352V1.848C73.0665 1.672 73.1305 1.52 73.2585 1.392C73.3865 1.264 73.5385 1.2 73.7145 1.2ZM79.3065 5.88V13.32H81.4905C82.2425 13.32 82.8345 13.144 83.2665 12.792C83.7145 12.424 83.9385 11.912 83.9385 11.256V7.944C83.9385 7.288 83.7145 6.784 83.2665 6.432C82.8345 6.064 82.2425 5.88 81.4905 5.88H79.3065ZM14.376 21.2H18.768C18.944 21.2 19.096 21.264 19.224 21.392C19.352 21.52 19.416 21.672 19.416 21.848V37.352C19.416 37.528 19.352 37.68 19.224 37.808C19.096 37.936 18.944 38 18.768 38H14.424C14.248 38 14.096 37.936 13.968 37.808C13.84 37.68 13.776 37.528 13.776 37.352V29.912L12.024 33.368C11.928 33.56 11.784 33.712 11.592 33.824C11.4 33.92 11.208 33.968 11.016 33.968H9.384C9.112 33.968 8.888 33.896 8.712 33.752C8.536 33.608 8.424 33.48 8.376 33.368L6.624 29.912V37.352C6.624 37.528 6.56 37.68 6.432 37.808C6.304 37.936 6.152 38 5.976 38H1.632C1.456 38 1.304 37.936 1.176 37.808C1.048 37.68 0.984 37.528 0.984 37.352V21.848C0.984 21.672 1.048 21.52 1.176 21.392C1.304 21.264 1.456 21.2 1.632 21.2H6.024C6.472 21.2 6.816 21.416 7.056 21.848L10.2 27.608L13.344 21.848C13.584 21.416 13.928 21.2 14.376 21.2ZM24.3746 38H19.8386C19.6946 38 19.5666 37.952 19.4546 37.856C19.3586 37.744 19.3106 37.64 19.3106 37.544C19.3106 37.448 19.3186 37.376 19.3346 37.328L24.5666 21.992C24.7106 21.464 25.0706 21.2 25.6466 21.2H32.3186C32.8946 21.2 33.2546 21.464 33.3986 21.992L38.6306 37.328C38.6466 37.376 38.6546 37.448 38.6546 37.544C38.6546 37.64 38.5986 37.744 38.4866 37.856C38.3906 37.952 38.2706 38 38.1266 38H33.5906C33.0786 38 32.7186 37.728 32.5106 37.184L31.9106 35.504H26.0546L25.4546 37.184C25.2466 37.728 24.8866 38 24.3746 38ZM30.6866 30.824L28.9826 25.832L27.2786 30.824H30.6866ZM36.7013 21.2H53.2613C53.4373 21.2 53.5893 21.264 53.7173 21.392C53.8453 21.52 53.9093 21.672 53.9093 21.848V25.712C53.9093 25.888 53.8453 26.04 53.7173 26.168C53.5893 26.296 53.4373 26.36 53.2613 26.36H48.1013V37.352C48.1013 37.528 48.0373 37.68 47.9093 37.808C47.7813 37.936 47.6293 38 47.4532 38H42.5093C42.3333 38 42.1813 37.936 42.0533 37.808C41.9253 37.68 41.8613 37.528 41.8613 37.352V26.36H36.7013C36.5253 26.36 36.3733 26.296 36.2453 26.168C36.1173 26.04 36.0533 25.888 36.0533 25.712V21.848C36.0533 21.672 36.1173 21.52 36.2453 21.392C36.3733 21.264 36.5253 21.2 36.7013 21.2ZM60.5239 27.68V31.52C60.5239 32.176 60.7399 32.68 61.1719 33.032C61.6199 33.384 62.1959 33.56 62.8999 33.56C63.6199 33.56 64.1399 33.448 64.4599 33.224C64.7799 33 65.0439 32.672 65.2519 32.24C65.4759 31.808 65.7639 31.592 66.1159 31.592H71.2999C71.4439 31.592 71.5639 31.648 71.6599 31.76C71.7719 31.856 71.8279 31.976 71.8279 32.12C71.8279 33.608 71.1239 34.968 69.7159 36.2C69.0119 36.808 68.0759 37.304 66.9079 37.688C65.7399 38.056 64.3639 38.24 62.7799 38.24C61.1959 38.24 59.7479 38 58.4359 37.52C57.1399 37.024 56.0839 36.224 55.2679 35.12C54.4519 34 54.0439 32.632 54.0439 31.016V28.184C54.0439 26.568 54.4519 25.2 55.2679 24.08C56.8039 22 59.3719 20.96 62.9719 20.96C64.4279 20.96 65.7399 21.152 66.9079 21.536C68.0759 21.904 69.0119 22.392 69.7159 23C71.1239 24.232 71.8279 25.592 71.8279 27.08C71.8279 27.224 71.7719 27.352 71.6599 27.464C71.5639 27.56 71.4439 27.608 71.2999 27.608H66.1159C65.7639 27.608 65.4759 27.392 65.2519 26.96C65.0439 26.528 64.7799 26.2 64.4599 25.976C64.1399 25.752 63.6199 25.64 62.8999 25.64C62.1959 25.64 61.6199 25.816 61.1719 26.168C60.7399 26.52 60.5239 27.024 60.5239 27.68ZM84.2505 21.2H89.1945C89.3705 21.2 89.5225 21.264 89.6505 21.392C89.7785 21.52 89.8425 21.672 89.8425 21.848V37.352C89.8425 37.528 89.7785 37.68 89.6505 37.808C89.5225 37.936 89.3705 38 89.1945 38H84.2505C84.0745 38 83.9225 37.936 83.7945 37.808C83.6665 37.68 83.6025 37.528 83.6025 37.352V32.24H78.8025V37.352C78.8025 37.528 78.7385 37.68 78.6105 37.808C78.4825 37.936 78.3305 38 78.1545 38H73.2105C73.0345 38 72.8825 37.944 72.7545 37.832C72.6265 37.704 72.5625 37.544 72.5625 37.352V21.848C72.5625 21.672 72.6265 21.52 72.7545 21.392C72.8825 21.264 73.0345 21.2 73.2105 21.2H78.1545C78.3305 21.2 78.4825 21.264 78.6105 21.392C78.7385 21.52 78.8025 21.672 78.8025 21.848V26.768H83.6025V21.848C83.6025 21.672 83.6665 21.52 83.7945 21.392C83.9225 21.264 84.0745 21.2 84.2505 21.2ZM113.032 21.2H117.496C117.672 21.2 117.824 21.264 117.952 21.392C118.08 21.52 118.144 21.672 118.144 21.848V37.352C118.144 37.528 118.08 37.68 117.952 37.808C117.824 37.936 117.672 38 117.496 38H113.632C113.248 38 112.928 37.832 112.672 37.496L107.44 30.824V37.352C107.44 37.528 107.376 37.68 107.248 37.808C107.12 37.936 106.968 38 106.792 38H102.328C102.152 38 102 37.936 101.872 37.808C101.744 37.68 101.68 37.528 101.68 37.352V21.848C101.68 21.672 101.744 21.52 101.872 21.392C102 21.264 102.152 21.2 102.328 21.2H106.216C106.6 21.2 106.912 21.36 107.152 21.68L112.384 28.904V21.848C112.384 21.672 112.448 21.52 112.576 21.392C112.704 21.264 112.856 21.2 113.032 21.2ZM131.982 21.2H136.998C137.142 21.2 137.262 21.256 137.358 21.368C137.47 21.464 137.526 21.568 137.526 21.68C137.526 21.792 137.502 21.896 137.454 21.992L131.406 32V37.352C131.406 37.528 131.342 37.68 131.214 37.808C131.086 37.936 130.934 38 130.758 38H125.646C125.47 38 125.318 37.936 125.19 37.808C125.062 37.68 124.998 37.528 124.998 37.352V32L118.974 21.992C118.926 21.896 118.902 21.792 118.902 21.68C118.902 21.568 118.95 21.464 119.046 21.368C119.158 21.256 119.286 21.2 119.43 21.2H124.494C124.942 21.2 125.27 21.384 125.478 21.752L128.19 26.504L130.974 21.8C131.214 21.4 131.55 21.2 131.982 21.2ZM142.077 27.68V31.52C142.077 32.176 142.293 32.68 142.725 33.032C143.173 33.384 143.749 33.56 144.453 33.56C145.173 33.56 145.693 33.448 146.013 33.224C146.333 33 146.597 32.672 146.805 32.24C147.029 31.808 147.317 31.592 147.669 31.592H152.853C152.997 31.592 153.117 31.648 153.213 31.76C153.325 31.856 153.381 31.976 153.381 32.12C153.381 33.608 152.677 34.968 151.269 36.2C150.565 36.808 149.629 37.304 148.461 37.688C147.293 38.056 145.917 38.24 144.333 38.24C142.749 38.24 141.301 38 139.989 37.52C138.693 37.024 137.637 36.224 136.821 35.12C136.005 34 135.597 32.632 135.597 31.016V28.184C135.597 26.568 136.005 25.2 136.821 24.08C138.357 22 140.925 20.96 144.525 20.96C145.981 20.96 147.293 21.152 148.461 21.536C149.629 21.904 150.565 22.392 151.269 23C152.677 24.232 153.381 25.592 153.381 27.08C153.381 27.224 153.325 27.352 153.213 27.464C153.117 27.56 152.997 27.608 152.853 27.608H147.669C147.317 27.608 147.029 27.392 146.805 26.96C146.597 26.528 146.333 26.2 146.013 25.976C145.693 25.752 145.173 25.64 144.453 25.64C143.749 25.64 143.173 25.816 142.725 26.168C142.293 26.52 142.077 27.024 142.077 27.68Z" fill="white"/>
<path d="M93.0731 32.288H98.1131C98.2891 32.288 98.4411 32.352 98.5691 32.48C98.6971 32.608 98.7611 32.76 98.7611 32.936V37.352C98.7611 37.528 98.6971 37.68 98.5691 37.808C98.4411 37.936 98.2891 38 98.1131 38H93.0731C92.8971 38 92.7451 37.936 92.6171 37.808C92.4891 37.68 92.4251 37.528 92.4251 37.352V32.936C92.4251 32.76 92.4891 32.608 92.6171 32.48C92.7451 32.352 92.8971 32.288 93.0731 32.288Z" fill="#3CFF00"/>
</svg>
